<?xml version="1.0" encoding="utf-8"?>
<!-- Generator: Adobe Illustrator 22.0.0, SVG Export Plug-In . SVG Version: 6.00 Build 0)  -->
<svg version="1.1" xmlns="http://www.w3.org/2000/svg" xmlns:xlink="http://www.w3.org/1999/xlink" x="0px" y="0px"
	 viewBox="0 0 739 763.5" style="enable-background:new 0 0 739 763.5;" xml:space="preserve">
<style type="text/css">
	.st0{fill:#FFFFFF;}
</style>
<g id="Camada_2">
</g>
<g id="Camada_1">
	<g>
		<path class="st0" d="M719.6,75.2c-8.3-19.7-22.3-36.5-39.8-48.3C662.3,15,641.1,8.1,618.4,8.1c-15.1,0-29.6,3.1-42.8,8.6
			c-19.7,8.3-36.5,22.3-48.3,39.8c-11.8,17.5-18.8,38.7-18.8,61.4c0,15.1,3.1,29.6,8.6,42.8c3.6,8.6,8.3,16.5,13.8,23.8l-42.9,38.1
			c-27.3-17-59.5-26.9-94-26.9c-24.5,0-47.9,5-69.1,14c-27.3,11.5-51,29.7-69.3,52.4l-36.3-11.6c2.3-8,3.6-16.5,3.6-25.3
			c0-12.5-2.5-24.4-7.1-35.3c-6.9-16.3-18.4-30.1-32.8-39.9c-14.5-9.8-32-15.5-50.7-15.5c-12.5,0-24.4,2.5-35.3,7.1
			c-16.3,6.9-30.1,18.4-39.9,32.8c-9.8,14.5-15.5,32-15.5,50.7c0,12.5,2.5,24.4,7.1,35.3c6.9,16.3,18.4,30.1,32.8,39.9
			c14.5,9.8,32,15.5,50.7,15.5c12.5,0,24.4-2.5,35.3-7.1c15.5-6.6,28.7-17.3,38.4-30.7l32.2,10.3c-13.8,25.3-21.7,54.3-21.7,85
			c0,24.5,5,47.9,14,69.1c5.1,12,11.4,23.3,18.8,33.7l-63.5,51.7c-15.3-9.7-33.4-15.3-52.8-15.3c-8.4,0-15.2,6.8-15.2,15.2
			c0,8.4,6.8,15.2,15.2,15.2v0c9.5,0,18.5,1.9,26.6,5.4c12.3,5.2,22.8,13.9,30.1,24.8c7.4,10.9,11.7,24,11.7,38.3
			c0,9.5-1.9,18.5-5.4,26.6c-5.2,12.3-13.9,22.8-24.8,30.1c-10.9,7.4-24,11.7-38.3,11.7c-9.5,0-18.5-1.9-26.6-5.4
			c-12.3-5.2-22.8-13.9-30.1-24.8c-7.4-10.9-11.7-24-11.7-38.3V609l-0.1-0.4c0.1-0.8,0.2-2.1,0.6-4.2c0.6-3.1,1.7-7.7,3.8-14.1
			c2.6-8-1.8-16.5-9.7-19.1c-8-2.6-16.5,1.8-19.1,9.7c-2.4,7.4-3.9,13.1-4.8,17.7c-0.9,4.6-1.2,8-1.2,10.7c0,1.3,0.1,2.4,0.2,3.5
			c0.2,13.1,2.9,25.6,7.7,37c7.5,17.7,20,32.8,35.8,43.4c15.7,10.6,34.8,16.9,55.2,16.9c13.6,0,26.6-2.8,38.5-7.8
			c17.7-7.5,32.8-20,43.4-35.8c10.6-15.7,16.9-34.8,16.9-55.2c0-13.6-2.8-26.6-7.8-38.5c-3.8-9-8.9-17.4-15.1-24.8l60-48.9
			c7.9,7.9,16.6,15,25.9,21.3c28.3,19.1,62.6,30.3,99.3,30.3c23.8,0,46.5-4.7,67.2-13.2l26.8,46.5c-6.1,5.3-11.5,11.3-16,18
			c-9.8,14.5-15.5,32-15.5,50.7c0,12.5,2.5,24.4,7.1,35.3c6.9,16.3,18.4,30.1,32.8,39.9c14.5,9.8,32,15.5,50.7,15.5
			c12.5,0,24.4-2.5,35.3-7.1c16.3-6.9,30.1-18.4,39.9-32.8c9.8-14.5,15.5-32,15.5-50.7c0-12.5-2.5-24.4-7.1-35.3
			c-6.9-16.3-18.4-30.1-32.8-39.9c-14.5-9.8-32-15.5-50.7-15.5c-11.7,0-22.9,2.2-33.2,6.3l-25.8-44.7c21.1-13.2,39.1-30.7,53-51.2
			c19.1-28.3,30.3-62.6,30.3-99.3c0-24.5-5-47.9-14-69.1c-10.2-24.2-25.7-45.6-44.9-62.9l39.8-35.3c1.4,1.1,2.9,2.1,4.4,3.1
			c17.5,11.8,38.7,18.8,61.4,18.8c15.1,0,29.6-3.1,42.8-8.6c19.7-8.3,36.5-22.3,48.3-39.8c11.8-17.5,18.8-38.7,18.8-61.4
			C728.2,102.8,725.1,88.3,719.6,75.2z M187.9,248.6c-4.6,10.8-12.2,20.1-21.9,26.6c-9.7,6.5-21.2,10.3-33.7,10.3
			c-8.4,0-16.3-1.7-23.5-4.7c-10.8-4.6-20.1-12.2-26.6-21.9c-6.5-9.7-10.3-21.2-10.3-33.7c0-8.4,1.7-16.3,4.7-23.5
			c4.6-10.8,12.2-20.1,21.9-26.6c9.7-6.5,21.2-10.3,33.7-10.3c8.4,0,16.3,1.7,23.5,4.7c10.8,4.6,20.1,12.2,26.6,21.9
			c6.5,9.7,10.3,21.2,10.3,33.7C192.6,233.5,190.9,241.4,187.9,248.6z M570.8,597.3c10.8,4.6,20.1,12.2,26.6,21.9
			c6.5,9.7,10.3,21.2,10.3,33.7c0,8.4-1.7,16.3-4.7,23.5c-4.6,10.8-12.2,20.1-21.9,26.6c-9.7,6.5-21.2,10.3-33.7,10.3
			c-8.4,0-16.3-1.7-23.5-4.7c-10.8-4.6-20.1-12.2-26.6-21.9c-6.5-9.7-10.3-21.2-10.3-33.7c0-8.4,1.7-16.3,4.7-23.5
			c4.6-10.8,12.2-20.1,21.9-26.6c9.7-6.5,21.2-10.3,33.7-10.3C555.7,592.6,563.6,594.2,570.8,597.3z M541.4,373.3
			c0,20.4-4.1,39.7-11.6,57.3c-11.2,26.4-29.9,48.9-53.4,64.8c-23.5,15.9-51.8,25.1-82.3,25.1c-20.4,0-39.7-4.1-57.3-11.6
			c-26.4-11.2-48.9-29.9-64.8-53.4c-15.9-23.5-25.1-51.8-25.1-82.3c0-20.4,4.1-39.7,11.6-57.3c11.2-26.4,29.9-48.9,53.4-64.8
			c23.5-15.9,51.8-25.1,82.3-25.1c20.4,0,39.7,4.1,57.3,11.6c26.4,11.2,48.9,29.9,64.8,53.4C532.1,314.5,541.4,342.7,541.4,373.3z
			 M691.6,148.9c-6,14.3-16.1,26.4-28.8,35c-12.7,8.6-27.9,13.6-44.5,13.6c-11,0-21.4-2.2-31-6.2c-14.3-6-26.4-16.1-35-28.8
			c-8.6-12.7-13.6-27.9-13.6-44.5c0-11,2.2-21.4,6.2-31c6-14.3,16.1-26.4,28.8-35c12.7-8.6,27.9-13.6,44.5-13.6
			c11,0,21.4,2.2,31,6.2c14.3,6,26.4,16.1,35,28.8c8.6,12.7,13.6,27.9,13.6,44.5C697.9,129,695.7,139.4,691.6,148.9z"/>
		<circle class="st0" cx="79.7" cy="547.9" r="14.3"/>
		<path class="st0" d="M161.5,209.2h-12.6v-12.6c0-8.4-6.8-15.2-15.2-15.2c-8.4,0-15.2,6.8-15.2,15.2v12.6h-12.6
			c-8.4,0-15.2,6.8-15.2,15.2c0,8.4,6.8,15.2,15.2,15.2h12.6v12.6c0,8.4,6.8,15.2,15.2,15.2c8.4,0,15.2-6.8,15.2-15.2v-12.6h12.6
			c8.4,0,15.2-6.8,15.2-15.2C176.6,216,169.8,209.2,161.5,209.2z"/>
		<path class="st0" d="M575.2,658.7h-52.3c-8.4,0-15.2,6.8-15.2,15.2c0,8.4,6.8,15.2,15.2,15.2h52.3c8.4,0,15.2-6.8,15.2-15.2
			C590.3,665.5,583.5,658.7,575.2,658.7z"/>
		<path class="st0" d="M507.4,634.4c0,8.4,6.8,15.2,15.2,15.2h52.3c8.4,0,15.2-6.8,15.2-15.2c0-8.4-6.8-15.2-15.2-15.2h-52.3
			C514.2,619.2,507.4,626,507.4,634.4z"/>
		<path class="st0" d="M651.8,58.7c-8.4,0-15.2,6.8-15.2,15.2v74.9c0,8.4,6.8,15.2,15.2,15.2c8.4,0,15.2-6.8,15.2-15.2V73.8
			C667,65.4,660.2,58.7,651.8,58.7z"/>
		<path class="st0" d="M614.3,83.9c-8.4,0-15.2,6.8-15.2,15.2V149c0,8.4,6.8,15.2,15.2,15.2c8.4,0,15.2-6.8,15.2-15.2V99.1
			C629.4,90.7,622.6,83.9,614.3,83.9z"/>
		<path class="st0" d="M577.3,109.3c-8.4,0-15.2,6.8-15.2,15.2v25.7c0,8.4,6.8,15.2,15.2,15.2c8.4,0,15.2-6.8,15.2-15.2v-25.7
			C592.5,116.1,585.7,109.3,577.3,109.3z"/>
		<path class="st0" d="M108.7,635.7c1.1-0.9,1.9-1.7,2.9-2.6c1.6-1.6,3.4-3.4,5.2-5.3c1.5-1.6,3-3.2,4.3-4.7l46.7,13.8l8.6-50.9
			c1.4-8.3-4.2-16.1-12.4-17.5c-8.3-1.4-16.1,4.2-17.5,12.4l-2.9,17.2l-32.4-9.6l-6.4,7.3l0,0c-0.4,0.5-4.2,4.8-8.1,9.1
			c-2,2.1-4,4.2-5.5,5.7c-0.7,0.7-1.3,1.3-1.6,1.6c-6.3,4.2-8.6,12.5-5.1,19.4c3.7,7.5,12.8,10.5,20.3,6.8h0
			c0.8-0.4,1.4-0.8,1.9-1.1C107.5,636.7,108.1,636.2,108.7,635.7z M89.3,612.4L89.3,612.4L89.3,612.4L89.3,612.4z"/>
		<path class="st0" d="M465.5,293.2h-55.3V275c0-8.4-6.8-15.2-15.2-15.2c-8.4,0-15.2,6.8-15.2,15.2v18.1h-20l-2,0.6
			c-0.5,0.2-2.7,0.8-5.8,2.2c-2.4,1-5.2,2.5-8.4,4.5c-4.7,3-10,7.4-14.3,13.7c-2.2,3.2-4,6.9-5.4,11c-1.3,4.1-2.1,8.7-2.1,13.5
			c0,7.2,1,13.9,3.1,19.9c3,9,8.3,16.4,14.8,21.4c6.6,5,14.4,7.7,22.2,7.7c11.2,0,55,0,57.8,0c0.1,0,0.4,0,0.9,0.1
			c1.1,0.1,3,0.4,4.9,1.1c1.5,0.5,3,1.1,4.4,2c1,0.6,2,1.3,2.8,2.2c1.3,1.3,2.4,2.8,3.3,5.1c0.9,2.3,1.6,5.5,1.6,10.1
			c0,2.9-0.3,5.2-0.7,7c-0.8,3.2-1.8,4.9-3,6.2c-0.9,1-1.9,1.8-3,2.5c-1.7,1-3.9,1.7-5.9,2.1c-2,0.4-3.8,0.5-4.5,0.5
			c-0.1,0-0.2,0-0.3,0l-0.4,0h-96.3c-8.4,0-15.2,6.8-15.2,15.2c0,8.4,6.8,15.2,15.2,15.2l56.2,0v22.5c0,8.4,6.8,15.2,15.2,15.2
			c8.4,0,15.2-6.8,15.2-15.2v-22.5h9c0.4,0,0.9,0,1.5,0c2.2,0,5.9-0.2,10.5-1.1c3.4-0.7,7.4-1.8,11.5-3.7c3.1-1.4,6.3-3.3,9.4-5.9
			c4.6-3.8,8.8-9,11.7-15.5c2.9-6.5,4.4-14,4.4-22.5c0-5.6-0.7-10.8-1.9-15.6c-1.1-4.2-2.7-8-4.6-11.5c-3.4-6-7.9-10.7-12.5-14
			c-3.5-2.5-7-4.3-10.2-5.7c-4.9-2-9.3-3-12.7-3.5c-3.3-0.5-5.6-0.5-6.2-0.5c0,0-46.4,0-58,0c-1.1,0-3.2-0.5-5.3-3
			c-1.1-1.2-2.1-3-3-5.5c-0.9-2.5-1.5-5.9-1.5-10.2c0-1.5,0.2-2.8,0.5-3.8c0.5-1.9,1.4-3.4,2.7-4.9c1-1.1,2.1-2.2,3.4-3.1
			c1.9-1.4,4-2.5,5.5-3.1c0.1-0.1,0.3-0.1,0.4-0.2h100.8c8.4,0,15.2-6.8,15.2-15.2C480.6,300,473.9,293.2,465.5,293.2z"/>
	</g>
</g>
</svg>
